<?xml version="1.0" encoding="UTF-8" standalone="no"?>
<svg
   xmlns:dc="http://purl.org/dc/elements/1.1/"
   xmlns:cc="http://creativecommons.org/ns#"
   xmlns:rdf="http://www.w3.org/1999/02/22-rdf-syntax-ns#"
   xmlns:svg="http://www.w3.org/2000/svg"
   xmlns="http://www.w3.org/2000/svg"
   xmlns:sodipodi="http://sodipodi.sourceforge.net/DTD/sodipodi-0.dtd"
   xmlns:inkscape="http://www.inkscape.org/namespaces/inkscape"
   version="1.1"
   width="744.09448"
   height="1052.3622"
   id="svg2"
   inkscape:version="0.48.4 r9939"
   sodipodi:docname="a_path.svg">
  <sodipodi:namedview
     pagecolor="#ffffff"
     bordercolor="#666666"
     borderopacity="1"
     objecttolerance="10"
     gridtolerance="10"
     guidetolerance="10"
     inkscape:pageopacity="0"
     inkscape:pageshadow="2"
     inkscape:window-width="640"
     inkscape:window-height="480"
     id="namedview8"
     showgrid="false"
     inkscape:zoom="0.22425739"
     inkscape:cx="372.04724"
     inkscape:cy="526.18109"
     inkscape:window-x="65"
     inkscape:window-y="24"
     inkscape:window-maximized="0"
     inkscape:current-layer="svg2" />
  <defs
     id="defs4" />
  <metaextdata
     id="metaextdata7">
    <rdf:RDF>
      <cc:Work
         rdf:about="">
        <dc:format>image/svg+xml</dc:format>
        <dc:type
           rdf:resource="http://purl.org/dc/dcmitype/StillImage" />
        <dc:title />
      </cc:Work>
    </rdf:RDF>
  </metaextdata>
  <g
     id="layer1">
    <g
       style="font-size:40px;font-style:normal;font-weight:normal;line-height:125%;letter-spacing:0px;word-spacing:0px;fill:#000000;fill-opacity:1;stroke:none;font-family:Sans"
       id="text2985">
      <path
         d="M 279.42523,467.08038 C 276.52158,467.08039 274.50986,467.41243 273.39008,468.07648 272.27028,468.74055 271.71038,469.87336 271.71039,471.47491 271.71038,472.75096 272.12705,473.76659 272.96039,474.52179 273.80673,475.26398 274.95257,475.63507 276.39789,475.63507 278.39006,475.63507 279.98511,474.93195 281.18304,473.5257 282.39397,472.10643 282.99943,470.22492 282.99945,467.88116 L 282.99945,467.08038 279.42523,467.08038 M 286.5932,465.59601 286.5932,478.07648 282.99945,478.07648 282.99945,474.75616 C 282.17912,476.08429 281.15699,477.06736 279.93304,477.70538 278.70907,478.33038 277.21168,478.64288 275.44086,478.64288 273.20127,478.64288 271.41741,478.01788 270.08929,476.76788 268.77419,475.50487 268.11664,473.81867 268.11664,471.70929 268.11664,469.24836 268.93695,467.39289 270.57758,466.14288 272.23122,464.8929 274.69215,464.2679 277.96039,464.26788 L 282.99945,464.26788 282.99945,463.91632 C 282.99943,462.26269 282.45256,460.98665 281.35883,460.0882 280.27808,459.17676 278.75465,458.72103 276.78851,458.72101 275.5385,458.72103 274.32106,458.87077 273.13617,459.17023 271.95127,459.46972 270.81195,459.91894 269.7182,460.51788 L 269.7182,457.19757 C 271.0333,456.68978 272.30934,456.31218 273.54633,456.06476 274.7833,455.80436 275.98772,455.67416 277.15961,455.67413 280.32365,455.67416 282.68693,456.49447 284.24945,458.13507 285.81193,459.77571 286.59318,462.26269 286.5932,465.59601"
         style=""
         id="path2986" />
    </g>
  </g>
</svg>
