<?xml version="1.0" encoding="UTF-8" standalone="no"?>
<svg
   xmlns:dc="http://purl.org/dc/elements/1.1/"
   xmlns:cc="http://creativecommons.org/ns#"
   xmlns:rdf="http://www.w3.org/1999/02/22-rdf-syntax-ns#"
   xmlns:svg="http://www.w3.org/2000/svg"
   xmlns="http://www.w3.org/2000/svg"
   xmlns:sodipodi="http://sodipodi.sourceforge.net/DTD/sodipodi-0.dtd"
   xmlns:inkscape="http://www.inkscape.org/namespaces/inkscape"
   version="1.1"
   width="744.09448"
   height="1052.3622"
   id="svg2"
   inkscape:version="0.48.4 r9939"
   sodipodi:docname="B_uppercase_path.svg">
  <sodipodi:namedview
     pagecolor="#ffffff"
     bordercolor="#666666"
     borderopacity="1"
     objecttolerance="10"
     gridtolerance="10"
     guidetolerance="10"
     inkscape:pageopacity="0"
     inkscape:pageshadow="2"
     inkscape:window-width="640"
     inkscape:window-height="480"
     id="namedview8"
     showgrid="false"
     inkscape:zoom="0.22425739"
     inkscape:cx="372.04724"
     inkscape:cy="526.18109"
     inkscape:window-x="65"
     inkscape:window-y="24"
     inkscape:window-maximized="0"
     inkscape:current-layer="svg2" />
  <defs
     id="defs4" />
  <metaextdata
     id="metaextdata7">
    <rdf:RDF>
      <cc:Work
         rdf:about="">
        <dc:format>image/svg+xml</dc:format>
        <dc:type
           rdf:resource="http://purl.org/dc/dcmitype/StillImage" />
        <dc:title />
      </cc:Work>
    </rdf:RDF>
  </metaextdata>
  <g
     id="layer1">
    <g
       style="font-size:40px;font-style:normal;font-weight:normal;line-height:125%;letter-spacing:0px;word-spacing:0px;fill:#000000;fill-opacity:1;stroke:none;font-family:Sans"
       id="text2985">
      <path
         d="M 273.58539,464.1507 273.58539,474.83429 279.91351,474.83429 C 282.03589,474.83429 283.6049,474.3981 284.62054,473.5257 285.64917,472.64028 286.16349,471.29263 286.16351,469.48273 286.16349,467.65982 285.64917,466.31868 284.62054,465.45929 283.6049,464.58691 282.03589,464.15071 279.91351,464.1507 L 273.58539,464.1507 M 273.58539,452.15851 273.58539,460.94757 279.42523,460.94757 C 281.3523,460.94759 282.78459,460.58952 283.72211,459.87335 284.67261,459.1442 285.14787,458.03743 285.14789,456.55304 285.14787,455.08171 284.67261,453.98145 283.72211,453.25226 282.78459,452.52312 281.3523,452.15853 279.42523,452.15851 L 273.58539,452.15851 M 269.64008,448.91632 279.7182,448.91632 C 282.726,448.91635 285.0437,449.54135 286.67133,450.79132 288.29891,452.04135 289.11271,453.81869 289.11273,456.12335 289.11271,457.90723 288.69604,459.3265 287.86273,460.38116 287.02938,461.43587 285.80542,462.09342 284.19086,462.35382 286.13094,462.7705 287.63485,463.6429 288.70258,464.97101 289.78328,466.28612 290.32364,467.93326 290.32367,469.91241 290.32364,472.51659 289.43823,474.5283 287.66742,475.94757 285.89657,477.36684 283.37704,478.07648 280.10883,478.07648 L 269.64008,478.07648 269.64008,448.91632"
         style=""
         id="path2986" />
    </g>
  </g>
</svg>
