<?xml version="1.0" encoding="UTF-8" standalone="no"?>
<!-- Created with Inkscape (http://www.inkscape.org/) -->

<svg
   xmlns:dc="http://purl.org/dc/elements/1.1/"
   xmlns:cc="http://creativecommons.org/ns#"
   xmlns:rdf="http://www.w3.org/1999/02/22-rdf-syntax-ns#"
   xmlns:svg="http://www.w3.org/2000/svg"
   xmlns="http://www.w3.org/2000/svg"
   xmlns:sodipodi="http://sodipodi.sourceforge.net/DTD/sodipodi-0.dtd"
   xmlns:inkscape="http://www.inkscape.org/namespaces/inkscape"
   version="1.1"
   width="744.09448"
   height="1052.3622"
   id="svg2"
   inkscape:version="0.48.4 r9939"
   sodipodi:docname="banana.svg">
  <sodipodi:namedview
     pagecolor="#ffffff"
     bordercolor="#666666"
     borderopacity="1"
     objecttolerance="10"
     gridtolerance="10"
     guidetolerance="10"
     inkscape:pageopacity="0"
     inkscape:pageshadow="2"
     inkscape:window-width="1855"
     inkscape:window-height="1056"
     id="namedview3038"
     showgrid="false"
     inkscape:zoom="1.2067744"
     inkscape:cx="299.79424"
     inkscape:cy="523.00476"
     inkscape:window-x="65"
     inkscape:window-y="24"
     inkscape:window-maximized="1"
     inkscape:current-layer="svg2" />
  <defs
     id="defs4" />
  <metaextdata
     id="metaextdata7">
    <rdf:RDF>
      <cc:Work
         rdf:about="">
        <dc:format>image/svg+xml</dc:format>
        <dc:type
           rdf:resource="http://purl.org/dc/dcmitype/StillImage" />
        <dc:title />
      </cc:Work>
    </rdf:RDF>
  </metaextdata>
  <g
     id="layer1">
    <path
       style="fill:none;stroke:#000000;stroke-width:1px;stroke-linecap:butt;stroke-linejoin:miter;stroke-opacity:1"
       d="M 83.571428,257.36218 C 84.260296,267.91736 88.329061,277.48955 93.673369,286.51186 99.017677,295.53416 105.63753,304.00657 111.42857,312.36218 110.59287,321.35796 109.81382,330.40437 109.13791,339.4833 108.46201,348.56224 107.88925,357.67371 107.46614,366.79961 107.04303,375.92551 106.76957,385.06585 106.69227,394.20253 106.61496,403.33921 106.7338,412.47223 107.09529,421.5835 107.45678,430.69477 108.06093,439.78428 108.95422,448.83394 109.84752,457.88361 111.02997,466.89342 112.54808,475.84529 114.06618,484.79716 115.91994,493.69109 118.15586,502.50898 120.39178,511.32687 123.00985,520.06871 126.05658,528.71643 128.38543,534.46729 131.02696,540.08974 133.95608,545.56276 136.88519,551.03577 140.1019,556.35935 143.58112,561.51248 147.06034,566.66561 150.80207,571.64829 154.78123,576.43949 158.76039,581.2307 162.97698,585.83043 167.40592,590.21768 171.83486,594.60493 176.47614,598.77968 181.3047,602.72092 186.13325,606.66217 191.14908,610.3699 196.32709,613.82311 201.5051,617.27631 206.84529,620.47499 212.3226,623.39812 217.7999,626.32124 223.41431,628.96883 229.14074,631.31984 237.60619,634.58085 246.17258,637.18449 254.81383,639.20604 263.45508,641.22759 272.17118,642.66706 280.93606,643.59975 289.70094,644.53244 298.51459,644.95835 307.35094,644.95279 316.18729,644.94722 325.04633,644.51017 333.90198,643.71695 342.75763,642.92373 351.60989,641.77433 360.43268,640.34406 369.25547,638.91378 378.0488,637.20263 386.78657,635.28591 395.52434,633.36919 404.20655,631.24689 412.80714,628.99433 421.40772,626.74176 429.92667,624.35892 438.3379,621.92111 443.21573,620.25637 448.14895,618.59235 453.09881,616.88841 458.04867,615.18447 463.01517,613.44062 467.9596,611.61622 472.90402,609.79182 477.82636,607.88687 482.68788,605.86074 487.5494,603.83462 492.35011,601.68731 497.05127,599.3782 501.75243,597.06909 506.35404,594.59817 510.81737,591.9248 515.2807,589.25144 519.60575,586.37564 523.7538,583.25676 527.90184,580.13789 531.87287,576.77594 535.62816,573.1303 539.38345,569.48465 542.923,565.55531 546.20807,561.30163 547.97896,558.69415 549.05181,556.11569 549.53705,553.62002 550.02229,551.12435 549.91993,548.71146 549.34041,546.43514 548.76089,544.15882 547.70422,542.01905 546.28083,540.06962 544.85744,538.12018 543.06735,536.36108 541.02098,534.84607 538.97461,533.33106 536.67198,532.06015 534.22353,531.08711 531.77507,530.11407 529.1808,529.4389 526.55115,529.11537 523.92149,528.79184 521.25647,528.81994 518.66651,529.25346 516.07656,529.68697 513.56167,530.5259 511.2323,531.824 505.33625,533.72015 499.40037,535.5028 493.42992,537.16998 487.45947,538.83716 481.45444,540.38888 475.42012,541.82318 469.3858,543.25748 463.32218,544.57436 457.23453,545.77187 451.14687,546.96938 445.03519,548.04752 438.90475,549.00433 432.77431,549.96114 426.6251,550.79662 420.46241,551.50882 414.29972,552.22102 408.12354,552.80994 401.93913,553.27362 395.75472,553.7373 389.5621,554.07575 383.36652,554.287 377.17094,554.49825 370.97241,554.58231 364.7762,554.53722 358.51675,554.40856 352.23831,554.01907 345.97695,553.36177 339.7156,552.70448 333.47134,551.77938 327.28023,550.57949 321.08913,549.37961 314.95119,547.90493 308.90248,546.14849 302.85377,544.39205 296.8943,542.35384 291.06013,540.02688 285.22596,537.69992 279.5171,535.08422 273.96961,532.17278 268.42212,529.26135 263.03602,526.05419 257.84736,522.54431 252.65871,519.03444 247.6675,515.22187 242.90982,511.0996 238.15214,506.97733 233.62799,502.54537 229.37343,497.79675 224.14483,492.54745 219.3405,487.02979 214.90496,481.28528 210.46941,475.54076 206.40266,469.56939 202.64923,463.41267 198.8958,457.25594 195.4557,450.91385 192.27344,444.42791 189.09119,437.94196 186.16679,431.31216 183.44478,424.57999 180.72277,417.84782 178.20314,411.01329 175.83043,404.1179 173.45772,397.22251 171.23192,390.26625 169.09758,383.29063 166.96323,376.31501 164.92033,369.32003 162.91341,362.34717 160.9065,355.37432 158.93556,348.4236 156.94513,341.53651 155.79926,338.99309 154.64228,336.45467 153.48288,333.91762 152.32348,331.38057 151.16166,328.8449 150.00613,326.30696 148.8506,323.76902 147.70135,321.22882 146.56709,318.68272 145.43283,316.13662 144.31355,313.58462 143.21797,311.02309 138.83563,300.77696 134.83233,290.37828 131.76496,279.59443 129.13514,272.92023 125.43354,263.05201 120.16306,256.33124 106.99988,243.93712 97.357488,252.57449 83.571428,257.36218 z"
       id="path2985"
       inkscape:connector-curvature="0"
       sodipodi:nodetypes="cscssssssscssssssscssssssscssssssscssssssscssssssscssssssscssssssscssssccc" />
  </g>
</svg>
