<?xml version="1.0" encoding="UTF-8" standalone="no"?>
<svg
   xmlns:dc="http://purl.org/dc/elements/1.1/"
   xmlns:cc="http://creativecommons.org/ns#"
   xmlns:rdf="http://www.w3.org/1999/02/22-rdf-syntax-ns#"
   xmlns:svg="http://www.w3.org/2000/svg"
   xmlns="http://www.w3.org/2000/svg"
   xmlns:sodipodi="http://sodipodi.sourceforge.net/DTD/sodipodi-0.dtd"
   xmlns:inkscape="http://www.inkscape.org/namespaces/inkscape"
   version="1.1"
   width="744.09448"
   height="1052.3622"
   id="svg2"
   inkscape:version="0.48.4 r9939"
   sodipodi:docname="c_path.svg">
  <sodipodi:namedview
     pagecolor="#ffffff"
     bordercolor="#666666"
     borderopacity="1"
     objecttolerance="10"
     gridtolerance="10"
     guidetolerance="10"
     inkscape:pageopacity="0"
     inkscape:pageshadow="2"
     inkscape:window-width="640"
     inkscape:window-height="480"
     id="namedview8"
     showgrid="false"
     inkscape:zoom="0.22425739"
     inkscape:cx="372.04724"
     inkscape:cy="526.18109"
     inkscape:window-x="65"
     inkscape:window-y="24"
     inkscape:window-maximized="0"
     inkscape:current-layer="svg2" />
  <defs
     id="defs4" />
  <metaextdata
     id="metaextdata7">
    <rdf:RDF>
      <cc:Work
         rdf:about="">
        <dc:format>image/svg+xml</dc:format>
        <dc:type
           rdf:resource="http://purl.org/dc/dcmitype/StillImage" />
        <dc:title />
      </cc:Work>
    </rdf:RDF>
  </metaextdata>
  <g
     id="layer1">
    <g
       style="font-size:40px;font-style:normal;font-weight:normal;line-height:125%;letter-spacing:0px;word-spacing:0px;fill:#000000;fill-opacity:1;stroke:none;font-family:Sans"
       id="text2985">
      <path
         d="M 285.22601,457.04132 285.22601,460.4007 C 284.21037,459.84082 283.18824,459.42415 282.15961,459.1507 281.14397,458.86426 280.11532,458.72103 279.07367,458.72101 276.74293,458.72103 274.93304,459.46321 273.64398,460.94757 272.35491,462.41894 271.71038,464.48925 271.71039,467.15851 271.71038,469.82779 272.35491,471.90461 273.64398,473.38898 274.93304,474.86033 276.74293,475.59601 279.07367,475.59601 280.11532,475.59601 281.14397,475.45929 282.15961,475.18585 283.18824,474.8994 284.21037,474.47622 285.22601,473.91632 L 285.22601,477.23663 C 284.22339,477.70538 283.18172,478.05695 282.10101,478.29132 281.03329,478.5257 279.89397,478.64288 278.68304,478.64288 275.38876,478.64288 272.77158,477.60773 270.83148,475.53741 268.89137,473.46711 267.92132,470.67414 267.92133,467.15851 267.92132,463.59081 268.89788,460.78483 270.85101,458.74054 272.81715,456.69629 275.50595,455.67416 278.91742,455.67413 280.02418,455.67416 281.1049,455.79134 282.15961,456.0257 283.21428,456.24707 284.23641,456.58561 285.22601,457.04132"
         style=""
         id="path2986" />
    </g>
  </g>
</svg>
