<?xml version="1.0" encoding="UTF-8" standalone="no"?>
<svg
   xmlns:dc="http://purl.org/dc/elements/1.1/"
   xmlns:cc="http://creativecommons.org/ns#"
   xmlns:rdf="http://www.w3.org/1999/02/22-rdf-syntax-ns#"
   xmlns:svg="http://www.w3.org/2000/svg"
   xmlns="http://www.w3.org/2000/svg"
   xmlns:sodipodi="http://sodipodi.sourceforge.net/DTD/sodipodi-0.dtd"
   xmlns:inkscape="http://www.inkscape.org/namespaces/inkscape"
   version="1.1"
   width="744.09448"
   height="1052.3622"
   id="svg2"
   inkscape:version="0.48.4 r9939"
   sodipodi:docname="d_path.svg">
  <sodipodi:namedview
     pagecolor="#ffffff"
     bordercolor="#666666"
     borderopacity="1"
     objecttolerance="10"
     gridtolerance="10"
     guidetolerance="10"
     inkscape:pageopacity="0"
     inkscape:pageshadow="2"
     inkscape:window-width="640"
     inkscape:window-height="480"
     id="namedview8"
     showgrid="false"
     inkscape:zoom="0.22425739"
     inkscape:cx="372.04724"
     inkscape:cy="526.18109"
     inkscape:window-x="65"
     inkscape:window-y="24"
     inkscape:window-maximized="0"
     inkscape:current-layer="svg2" />
  <defs
     id="defs4" />
  <metaextdata
     id="metaextdata7">
    <rdf:RDF>
      <cc:Work
         rdf:about="">
        <dc:format>image/svg+xml</dc:format>
        <dc:type
           rdf:resource="http://purl.org/dc/dcmitype/StillImage" />
        <dc:title />
      </cc:Work>
    </rdf:RDF>
  </metaextdata>
  <g
     id="layer1">
    <g
       style="font-size:40px;font-style:normal;font-weight:normal;line-height:125%;letter-spacing:0px;word-spacing:0px;fill:#000000;fill-opacity:1;stroke:none;font-family:Sans"
       id="text2985">
      <path
         d="M 283.87836,459.52179 283.87836,447.68585 287.47211,447.68585 287.47211,478.07648 283.87836,478.07648 283.87836,474.79523 C 283.12313,476.09731 282.1661,477.06736 281.00726,477.70538 279.86142,478.33038 278.48121,478.64288 276.86664,478.64288 274.2234,478.64288 272.06845,477.5882 270.40179,475.47882 268.74815,473.36945 267.92132,470.59602 267.92133,467.15851 267.92132,463.72102 268.74815,460.94759 270.40179,458.8382 272.06845,456.72884 274.2234,455.67416 276.86664,455.67413 278.48121,455.67416 279.86142,455.99317 281.00726,456.63116 282.1661,457.25619 283.12313,458.21973 283.87836,459.52179 M 271.63226,467.15851 C 271.63226,469.80175 272.17262,471.87857 273.25336,473.38898 274.3471,474.88638 275.84449,475.63507 277.74554,475.63507 279.64657,475.63507 281.14397,474.88638 282.23773,473.38898 283.33146,471.87857 283.87834,469.80175 283.87836,467.15851 283.87834,464.51529 283.33146,462.44498 282.23773,460.94757 281.14397,459.43717 279.64657,458.68197 277.74554,458.68195 275.84449,458.68197 274.3471,459.43717 273.25336,460.94757 272.17262,462.44498 271.63226,464.51529 271.63226,467.15851"
         style=""
         id="path2986" />
    </g>
  </g>
</svg>
