<?xml version="1.0" encoding="UTF-8" standalone="no"?>
<svg
   xmlns:dc="http://purl.org/dc/elements/1.1/"
   xmlns:cc="http://creativecommons.org/ns#"
   xmlns:rdf="http://www.w3.org/1999/02/22-rdf-syntax-ns#"
   xmlns:svg="http://www.w3.org/2000/svg"
   xmlns="http://www.w3.org/2000/svg"
   xmlns:sodipodi="http://sodipodi.sourceforge.net/DTD/sodipodi-0.dtd"
   xmlns:inkscape="http://www.inkscape.org/namespaces/inkscape"
   version="1.1"
   width="744.09448"
   height="1052.3622"
   id="svg2"
   inkscape:version="0.48.4 r9939"
   sodipodi:docname="G_uppercase_path.svg">
  <sodipodi:namedview
     pagecolor="#ffffff"
     bordercolor="#666666"
     borderopacity="1"
     objecttolerance="10"
     gridtolerance="10"
     guidetolerance="10"
     inkscape:pageopacity="0"
     inkscape:pageshadow="2"
     inkscape:window-width="640"
     inkscape:window-height="480"
     id="namedview8"
     showgrid="false"
     inkscape:zoom="0.22425739"
     inkscape:cx="372.04724"
     inkscape:cy="526.18109"
     inkscape:window-x="65"
     inkscape:window-y="24"
     inkscape:window-maximized="0"
     inkscape:current-layer="svg2" />
  <defs
     id="defs4" />
  <metaextdata
     id="metaextdata7">
    <rdf:RDF>
      <cc:Work
         rdf:about="">
        <dc:format>image/svg+xml</dc:format>
        <dc:type
           rdf:resource="http://purl.org/dc/dcmitype/StillImage" />
        <dc:title />
      </cc:Work>
    </rdf:RDF>
  </metaextdata>
  <g
     id="layer1">
    <g
       style="font-size:40px;font-style:normal;font-weight:normal;line-height:125%;letter-spacing:0px;word-spacing:0px;fill:#000000;fill-opacity:1;stroke:none;font-family:Sans"
       id="text2985">
      <path
         d="M 289.52289,473.91632 289.52289,466.08429 283.07758,466.08429 283.07758,462.8421 293.42914,462.8421 293.42914,475.36163 C 291.90567,476.44236 290.22599,477.26268 288.39008,477.82257 286.55412,478.36945 284.59448,478.64288 282.51117,478.64288 277.95387,478.64288 274.38616,477.31476 271.80804,474.65851 269.24294,471.98924 267.96039,468.27831 267.96039,463.5257 267.96039,458.76009 269.24294,455.04916 271.80804,452.39288 274.38616,449.72364 277.95387,448.38901 282.51117,448.38898 284.41219,448.38901 286.21558,448.62338 287.92133,449.0921 289.64005,449.56088 291.22208,450.25098 292.66742,451.16241 L 292.66742,455.36163 C 291.20906,454.12468 289.65958,453.19369 288.01898,452.56866 286.37834,451.94369 284.65308,451.63119 282.8432,451.63116 279.27548,451.63119 276.59319,452.62728 274.79633,454.61945 273.01246,456.61165 272.12054,459.5804 272.12054,463.5257 272.12054,467.458 273.01246,470.42023 274.79633,472.41241 276.59319,474.40461 279.27548,475.4007 282.8432,475.4007 284.23641,475.4007 285.4799,475.28351 286.57367,475.04913 287.6674,474.80174 288.65047,474.42414 289.52289,473.91632"
         style=""
         id="path2986" />
    </g>
  </g>
</svg>
