<?xml version="1.0" encoding="UTF-8" standalone="no"?>
<svg
   xmlns:dc="http://purl.org/dc/elements/1.1/"
   xmlns:cc="http://creativecommons.org/ns#"
   xmlns:rdf="http://www.w3.org/1999/02/22-rdf-syntax-ns#"
   xmlns:svg="http://www.w3.org/2000/svg"
   xmlns="http://www.w3.org/2000/svg"
   xmlns:sodipodi="http://sodipodi.sourceforge.net/DTD/sodipodi-0.dtd"
   xmlns:inkscape="http://www.inkscape.org/namespaces/inkscape"
   version="1.1"
   width="744.09448"
   height="1052.3622"
   id="svg2"
   inkscape:version="0.48.4 r9939"
   sodipodi:docname="m_path.svg">
  <sodipodi:namedview
     pagecolor="#ffffff"
     bordercolor="#666666"
     borderopacity="1"
     objecttolerance="10"
     gridtolerance="10"
     guidetolerance="10"
     inkscape:pageopacity="0"
     inkscape:pageshadow="2"
     inkscape:window-width="640"
     inkscape:window-height="480"
     id="namedview8"
     showgrid="false"
     inkscape:zoom="0.22425739"
     inkscape:cx="372.04724"
     inkscape:cy="526.18109"
     inkscape:window-x="65"
     inkscape:window-y="24"
     inkscape:window-maximized="0"
     inkscape:current-layer="svg2" />
  <defs
     id="defs4" />
  <metaextdata
     id="metaextdata7">
    <rdf:RDF>
      <cc:Work
         rdf:about="">
        <dc:format>image/svg+xml</dc:format>
        <dc:type
           rdf:resource="http://purl.org/dc/dcmitype/StillImage" />
        <dc:title />
      </cc:Work>
    </rdf:RDF>
  </metaextdata>
  <g
     id="layer1">
    <g
       style="font-size:40px;font-style:normal;font-weight:normal;line-height:125%;letter-spacing:0px;word-spacing:0px;fill:#000000;fill-opacity:1;stroke:none;font-family:Sans"
       id="text2985">
      <path
         d="M 286.51508,460.4007 C 287.41349,458.78613 288.48771,457.59473 289.73773,456.82648 290.98771,456.05827 292.45906,455.67416 294.15179,455.67413 296.43041,455.67416 298.18822,456.47494 299.42523,458.07648 300.66218,459.66504 301.28067,461.93066 301.2807,464.87335 L 301.2807,478.07648 297.66742,478.07648 297.66742,464.99054 C 297.66739,462.8942 297.29629,461.33821 296.55414,460.32257 295.81192,459.30696 294.67911,458.79915 293.1557,458.79913 291.2937,458.79915 289.82234,459.41764 288.74164,460.6546 287.66089,461.8916 287.12052,463.57779 287.12054,465.7132 L 287.12054,478.07648 283.50726,478.07648 283.50726,464.99054 C 283.50725,462.88118 283.13615,461.32519 282.39398,460.32257 281.65178,459.30696 280.50595,458.79915 278.95648,458.79913 277.12053,458.79915 275.6622,459.42415 274.58148,460.67413 273.50074,461.91113 272.96038,463.59081 272.96039,465.7132 L 272.96039,478.07648 269.34711,478.07648 269.34711,456.20148 272.96039,456.20148 272.96039,459.59991 C 273.78069,458.25879 274.76376,457.26921 275.90961,456.63116 277.05543,455.99317 278.4161,455.67416 279.99164,455.67413 281.58016,455.67416 282.92782,456.0778 284.03461,456.88507 285.15438,457.69238 285.9812,458.86426 286.51508,460.4007"
         style=""
         id="path2986" />
    </g>
  </g>
</svg>
