<?xml version="1.0" encoding="UTF-8" standalone="no"?>
<svg
   xmlns:dc="http://purl.org/dc/elements/1.1/"
   xmlns:cc="http://creativecommons.org/ns#"
   xmlns:rdf="http://www.w3.org/1999/02/22-rdf-syntax-ns#"
   xmlns:svg="http://www.w3.org/2000/svg"
   xmlns="http://www.w3.org/2000/svg"
   xmlns:sodipodi="http://sodipodi.sourceforge.net/DTD/sodipodi-0.dtd"
   xmlns:inkscape="http://www.inkscape.org/namespaces/inkscape"
   version="1.1"
   width="744.09448"
   height="1052.3622"
   id="svg2"
   inkscape:version="0.48.4 r9939"
   sodipodi:docname="O_uppercase_path.svg">
  <sodipodi:namedview
     pagecolor="#ffffff"
     bordercolor="#666666"
     borderopacity="1"
     objecttolerance="10"
     gridtolerance="10"
     guidetolerance="10"
     inkscape:pageopacity="0"
     inkscape:pageshadow="2"
     inkscape:window-width="640"
     inkscape:window-height="480"
     id="namedview8"
     showgrid="false"
     inkscape:zoom="0.22425739"
     inkscape:cx="372.04724"
     inkscape:cy="526.18109"
     inkscape:window-x="65"
     inkscape:window-y="24"
     inkscape:window-maximized="0"
     inkscape:current-layer="svg2" />
  <defs
     id="defs4" />
  <metaextdata
     id="metaextdata7">
    <rdf:RDF>
      <cc:Work
         rdf:about="">
        <dc:format>image/svg+xml</dc:format>
        <dc:type
           rdf:resource="http://purl.org/dc/dcmitype/StillImage" />
        <dc:title />
      </cc:Work>
    </rdf:RDF>
  </metaextdata>
  <g
     id="layer1">
    <g
       style="font-size:40px;font-style:normal;font-weight:normal;line-height:125%;letter-spacing:0px;word-spacing:0px;fill:#000000;fill-opacity:1;stroke:none;font-family:Sans"
       id="text2985">
      <path
         d="M 281.47601,451.5921 C 278.61142,451.59213 276.33277,452.65984 274.64008,454.79523 272.96038,456.93066 272.12054,459.84082 272.12054,463.5257 272.12054,467.19758 272.96038,470.10122 274.64008,472.23663 276.33277,474.37205 278.61142,475.43976 281.47601,475.43976 284.34058,475.43976 286.6062,474.37205 288.27289,472.23663 289.95255,470.10122 290.79239,467.19758 290.79242,463.5257 290.79239,459.84082 289.95255,456.93066 288.27289,454.79523 286.6062,452.65984 284.34058,451.59213 281.47601,451.5921 M 281.47601,448.38898 C 285.56453,448.38901 288.83276,449.7627 291.2807,452.51007 293.72859,455.24447 294.95255,458.91634 294.95258,463.5257 294.95255,468.12206 293.72859,471.79393 291.2807,474.54132 288.83276,477.2757 285.56453,478.64288 281.47601,478.64288 277.37444,478.64288 274.09319,477.2757 271.63226,474.54132 269.18434,471.80695 267.96039,468.13508 267.96039,463.5257 267.96039,458.91634 269.18434,455.24447 271.63226,452.51007 274.09319,449.7627 277.37444,448.38901 281.47601,448.38898"
         style=""
         id="path2986" />
    </g>
  </g>
</svg>
