<?xml version="1.0" encoding="UTF-8" standalone="no"?>
<svg
   xmlns:dc="http://purl.org/dc/elements/1.1/"
   xmlns:cc="http://creativecommons.org/ns#"
   xmlns:rdf="http://www.w3.org/1999/02/22-rdf-syntax-ns#"
   xmlns:svg="http://www.w3.org/2000/svg"
   xmlns="http://www.w3.org/2000/svg"
   xmlns:sodipodi="http://sodipodi.sourceforge.net/DTD/sodipodi-0.dtd"
   xmlns:inkscape="http://www.inkscape.org/namespaces/inkscape"
   version="1.1"
   width="744.09448"
   height="1052.3622"
   id="svg2"
   inkscape:version="0.48.4 r9939"
   sodipodi:docname="p_path.svg">
  <sodipodi:namedview
     pagecolor="#ffffff"
     bordercolor="#666666"
     borderopacity="1"
     objecttolerance="10"
     gridtolerance="10"
     guidetolerance="10"
     inkscape:pageopacity="0"
     inkscape:pageshadow="2"
     inkscape:window-width="640"
     inkscape:window-height="480"
     id="namedview8"
     showgrid="false"
     inkscape:zoom="0.22425739"
     inkscape:cx="372.04724"
     inkscape:cy="526.18109"
     inkscape:window-x="65"
     inkscape:window-y="24"
     inkscape:window-maximized="0"
     inkscape:current-layer="svg2" />
  <defs
     id="defs4" />
  <metaextdata
     id="metaextdata7">
    <rdf:RDF>
      <cc:Work
         rdf:about="">
        <dc:format>image/svg+xml</dc:format>
        <dc:type
           rdf:resource="http://purl.org/dc/dcmitype/StillImage" />
        <dc:title />
      </cc:Work>
    </rdf:RDF>
  </metaextdata>
  <g
     id="layer1">
    <g
       style="font-size:40px;font-style:normal;font-weight:normal;line-height:125%;letter-spacing:0px;word-spacing:0px;fill:#000000;fill-opacity:1;stroke:none;font-family:Sans"
       id="text2985">
      <path
         d="M 272.96039,474.79523 272.96039,486.39679 269.34711,486.39679 269.34711,456.20148 272.96039,456.20148 272.96039,459.52179 C 273.71559,458.21973 274.66611,457.25619 275.81195,456.63116 276.97079,455.99317 278.351,455.67416 279.95258,455.67413 282.60881,455.67416 284.76375,456.72884 286.41742,458.8382 288.08406,460.94759 288.9174,463.72102 288.91742,467.15851 288.9174,470.59602 288.08406,473.36945 286.41742,475.47882 284.76375,477.5882 282.60881,478.64288 279.95258,478.64288 278.351,478.64288 276.97079,478.33038 275.81195,477.70538 274.66611,477.06736 273.71559,476.09731 272.96039,474.79523 M 285.18695,467.15851 C 285.18693,464.51529 284.64006,462.44498 283.54633,460.94757 282.46558,459.43717 280.9747,458.68197 279.07367,458.68195 277.17262,458.68197 275.67522,459.43717 274.58148,460.94757 273.50074,462.44498 272.96038,464.51529 272.96039,467.15851 272.96038,469.80175 273.50074,471.87857 274.58148,473.38898 275.67522,474.88638 277.17262,475.63507 279.07367,475.63507 280.9747,475.63507 282.46558,474.88638 283.54633,473.38898 284.64006,471.87857 285.18693,469.80175 285.18695,467.15851"
         style=""
         id="path2986" />
    </g>
  </g>
</svg>
