<?xml version="1.0" encoding="UTF-8" standalone="no"?>
<svg
   xmlns:dc="http://purl.org/dc/elements/1.1/"
   xmlns:cc="http://creativecommons.org/ns#"
   xmlns:rdf="http://www.w3.org/1999/02/22-rdf-syntax-ns#"
   xmlns:svg="http://www.w3.org/2000/svg"
   xmlns="http://www.w3.org/2000/svg"
   xmlns:sodipodi="http://sodipodi.sourceforge.net/DTD/sodipodi-0.dtd"
   xmlns:inkscape="http://www.inkscape.org/namespaces/inkscape"
   version="1.1"
   width="744.09448"
   height="1052.3622"
   id="svg2"
   inkscape:version="0.48.4 r9939"
   sodipodi:docname="P_uppercase_path.svg">
  <sodipodi:namedview
     pagecolor="#ffffff"
     bordercolor="#666666"
     borderopacity="1"
     objecttolerance="10"
     gridtolerance="10"
     guidetolerance="10"
     inkscape:pageopacity="0"
     inkscape:pageshadow="2"
     inkscape:window-width="640"
     inkscape:window-height="480"
     id="namedview8"
     showgrid="false"
     inkscape:zoom="0.22425739"
     inkscape:cx="372.04724"
     inkscape:cy="526.18109"
     inkscape:window-x="65"
     inkscape:window-y="24"
     inkscape:window-maximized="0"
     inkscape:current-layer="svg2" />
  <defs
     id="defs4" />
  <metaextdata
     id="metaextdata7">
    <rdf:RDF>
      <cc:Work
         rdf:about="">
        <dc:format>image/svg+xml</dc:format>
        <dc:type
           rdf:resource="http://purl.org/dc/dcmitype/StillImage" />
        <dc:title />
      </cc:Work>
    </rdf:RDF>
  </metaextdata>
  <g
     id="layer1">
    <g
       style="font-size:40px;font-style:normal;font-weight:normal;line-height:125%;letter-spacing:0px;word-spacing:0px;fill:#000000;fill-opacity:1;stroke:none;font-family:Sans"
       id="text2985">
      <path
         d="M 273.58539,452.15851 273.58539,463.11554 278.54633,463.11554 C 280.38225,463.11555 281.80152,462.64029 282.80414,461.68976 283.80672,460.73925 284.30803,459.38509 284.30804,457.62726 284.30803,455.88249 283.80672,454.53483 282.80414,453.58429 281.80152,452.63379 280.38225,452.15853 278.54633,452.15851 L 273.58539,452.15851 M 269.64008,448.91632 278.54633,448.91632 C 281.81454,448.91635 284.28198,449.65854 285.94867,451.14288 287.62834,452.61426 288.46818,454.77572 288.4682,457.62726 288.46818,460.50488 287.62834,462.67936 285.94867,464.1507 284.28198,465.62206 281.81454,466.35774 278.54633,466.35773 L 273.58539,466.35773 273.58539,478.07648 269.64008,478.07648 269.64008,448.91632"
         style=""
         id="path2986" />
    </g>
  </g>
</svg>
