<?xml version="1.0" encoding="UTF-8" standalone="no"?>
<svg
   xmlns:dc="http://purl.org/dc/elements/1.1/"
   xmlns:cc="http://creativecommons.org/ns#"
   xmlns:rdf="http://www.w3.org/1999/02/22-rdf-syntax-ns#"
   xmlns:svg="http://www.w3.org/2000/svg"
   xmlns="http://www.w3.org/2000/svg"
   xmlns:sodipodi="http://sodipodi.sourceforge.net/DTD/sodipodi-0.dtd"
   xmlns:inkscape="http://www.inkscape.org/namespaces/inkscape"
   version="1.1"
   width="744.09448"
   height="1052.3622"
   id="svg2"
   inkscape:version="0.48.4 r9939"
   sodipodi:docname="r_path.svg">
  <sodipodi:namedview
     pagecolor="#ffffff"
     bordercolor="#666666"
     borderopacity="1"
     objecttolerance="10"
     gridtolerance="10"
     guidetolerance="10"
     inkscape:pageopacity="0"
     inkscape:pageshadow="2"
     inkscape:window-width="640"
     inkscape:window-height="480"
     id="namedview8"
     showgrid="false"
     inkscape:zoom="0.22425739"
     inkscape:cx="372.04724"
     inkscape:cy="526.18109"
     inkscape:window-x="65"
     inkscape:window-y="24"
     inkscape:window-maximized="0"
     inkscape:current-layer="svg2" />
  <defs
     id="defs4" />
  <metaextdata
     id="metaextdata7">
    <rdf:RDF>
      <cc:Work
         rdf:about="">
        <dc:format>image/svg+xml</dc:format>
        <dc:type
           rdf:resource="http://purl.org/dc/dcmitype/StillImage" />
        <dc:title />
      </cc:Work>
    </rdf:RDF>
  </metaextdata>
  <g
     id="layer1">
    <g
       style="font-size:40px;font-style:normal;font-weight:normal;line-height:125%;letter-spacing:0px;word-spacing:0px;fill:#000000;fill-opacity:1;stroke:none;font-family:Sans"
       id="text2985">
      <path
         d="M 282.15961,459.56085 C 281.75595,459.3265 281.31324,459.15723 280.83148,459.05304 280.36272,458.93587 279.84188,458.87728 279.26898,458.87726 277.23772,458.87728 275.67522,459.54134 274.58148,460.86945 273.50074,462.18457 272.96038,464.0791 272.96039,466.55304 L 272.96039,478.07648 269.34711,478.07648 269.34711,456.20148 272.96039,456.20148 272.96039,459.59991 C 273.71559,458.27181 274.69866,457.28874 275.90961,456.6507 277.12053,455.99968 278.59189,455.67416 280.32367,455.67413 280.57105,455.67416 280.84449,455.69369 281.14398,455.73273 281.44345,455.75879 281.77548,455.80436 282.14008,455.86945 L 282.15961,459.56085"
         style=""
         id="path2986" />
    </g>
  </g>
</svg>
