<?xml version="1.0" encoding="UTF-8" standalone="no"?>
<svg
   xmlns:dc="http://purl.org/dc/elements/1.1/"
   xmlns:cc="http://creativecommons.org/ns#"
   xmlns:rdf="http://www.w3.org/1999/02/22-rdf-syntax-ns#"
   xmlns:svg="http://www.w3.org/2000/svg"
   xmlns="http://www.w3.org/2000/svg"
   xmlns:sodipodi="http://sodipodi.sourceforge.net/DTD/sodipodi-0.dtd"
   xmlns:inkscape="http://www.inkscape.org/namespaces/inkscape"
   version="1.1"
   width="744.09448"
   height="1052.3622"
   id="svg2"
   inkscape:version="0.48.4 r9939"
   sodipodi:docname="R_uppercase_path.svg">
  <sodipodi:namedview
     pagecolor="#ffffff"
     bordercolor="#666666"
     borderopacity="1"
     objecttolerance="10"
     gridtolerance="10"
     guidetolerance="10"
     inkscape:pageopacity="0"
     inkscape:pageshadow="2"
     inkscape:window-width="640"
     inkscape:window-height="480"
     id="namedview8"
     showgrid="false"
     inkscape:zoom="0.22425739"
     inkscape:cx="372.04724"
     inkscape:cy="526.18109"
     inkscape:window-x="65"
     inkscape:window-y="24"
     inkscape:window-maximized="0"
     inkscape:current-layer="svg2" />
  <defs
     id="defs4" />
  <metaextdata
     id="metaextdata7">
    <rdf:RDF>
      <cc:Work
         rdf:about="">
        <dc:format>image/svg+xml</dc:format>
        <dc:type
           rdf:resource="http://purl.org/dc/dcmitype/StillImage" />
        <dc:title />
      </cc:Work>
    </rdf:RDF>
  </metaextdata>
  <g
     id="layer1">
    <g
       style="font-size:40px;font-style:normal;font-weight:normal;line-height:125%;letter-spacing:0px;word-spacing:0px;fill:#000000;fill-opacity:1;stroke:none;font-family:Sans"
       id="text2985">
      <path
         d="M 283.4682,464.4046 C 284.31454,464.69107 285.13485,465.30305 285.92914,466.24054 286.73641,467.17805 287.5437,468.46711 288.35101,470.10773 L 292.35492,478.07648 288.11664,478.07648 284.38617,470.59601 C 283.42261,468.64289 282.48511,467.34732 281.57367,466.70929 280.67522,466.07128 279.44475,465.75227 277.88226,465.75226 L 273.58539,465.75226 273.58539,478.07648 269.64008,478.07648 269.64008,448.91632 278.54633,448.91632 C 281.87964,448.91635 284.36662,449.61296 286.00726,451.00616 287.64787,452.39942 288.46818,454.50228 288.4682,457.31476 288.46818,459.15071 288.03849,460.67415 287.17914,461.88507 286.33276,463.09602 285.09579,463.93587 283.4682,464.4046 M 273.58539,452.15851 273.58539,462.51007 278.54633,462.51007 C 280.44735,462.51009 281.87964,462.07389 282.8432,461.20148 283.81975,460.31608 284.30803,459.02051 284.30804,457.31476 284.30803,455.60905 283.81975,454.3265 282.8432,453.4671 281.87964,452.59473 280.44735,452.15853 278.54633,452.15851 L 273.58539,452.15851"
         style=""
         id="path2986" />
    </g>
  </g>
</svg>
