<?xml version="1.0" encoding="UTF-8" standalone="no"?>
<svg
   xmlns:dc="http://purl.org/dc/elements/1.1/"
   xmlns:cc="http://creativecommons.org/ns#"
   xmlns:rdf="http://www.w3.org/1999/02/22-rdf-syntax-ns#"
   xmlns:svg="http://www.w3.org/2000/svg"
   xmlns="http://www.w3.org/2000/svg"
   xmlns:sodipodi="http://sodipodi.sourceforge.net/DTD/sodipodi-0.dtd"
   xmlns:inkscape="http://www.inkscape.org/namespaces/inkscape"
   version="1.1"
   width="744.09448"
   height="1052.3622"
   id="svg2"
   inkscape:version="0.48.4 r9939"
   sodipodi:docname="e_path.svg">
  <sodipodi:namedview
     pagecolor="#ffffff"
     bordercolor="#666666"
     borderopacity="1"
     objecttolerance="10"
     gridtolerance="10"
     guidetolerance="10"
     inkscape:pageopacity="0"
     inkscape:pageshadow="2"
     inkscape:window-width="640"
     inkscape:window-height="480"
     id="namedview8"
     showgrid="false"
     inkscape:zoom="0.22425739"
     inkscape:cx="372.04724"
     inkscape:cy="526.18109"
     inkscape:window-x="65"
     inkscape:window-y="24"
     inkscape:window-maximized="0"
     inkscape:current-layer="svg2" />
  <defs
     id="defs4" />
  <metadata
     id="metadata7">
    <rdf:RDF>
      <cc:Work
         rdf:about="">
        <dc:format>image/svg+xml</dc:format>
        <dc:type
           rdf:resource="http://purl.org/dc/dcmitype/StillImage" />
        <dc:title />
      </cc:Work>
    </rdf:RDF>
  </metadata>
  <g
     id="layer1">
    <g
       style="font-size:40px;font-style:normal;font-weight:normal;line-height:125%;letter-spacing:0px;word-spacing:0px;fill:#000000;fill-opacity:1;stroke:none;font-family:Sans"
       id="text2985">
      <path
         d="M 288.19476,466.24054 288.19476,467.99835 271.67133,467.99835 C 271.82757,470.47232 272.56976,472.36034 273.89789,473.66241 275.23902,474.95148 277.101,475.59601 279.48383,475.59601 280.86402,475.59601 282.19865,475.42674 283.48773,475.0882 284.7898,474.74966 286.07886,474.24185 287.35492,473.56476 L 287.35492,476.9632 C 286.06584,477.51007 284.74422,477.92674 283.39008,478.2132 282.03589,478.49965 280.6622,478.64288 279.26898,478.64288 275.77939,478.64288 273.01246,477.62726 270.9682,475.59601 268.93695,473.56476 267.92132,470.81737 267.92133,467.35382 267.92132,463.77311 268.88486,460.93457 270.81195,458.8382 272.75205,456.72884 275.36272,455.67416 278.64398,455.67413 281.58667,455.67416 283.91089,456.62468 285.61664,458.5257 287.33537,460.41373 288.19474,462.98535 288.19476,466.24054 M 284.60101,465.18585 C 284.57495,463.21972 284.02157,461.65071 282.94086,460.47882 281.87313,459.30696 280.45386,458.72103 278.68304,458.72101 276.67783,458.72103 275.06975,459.28743 273.85883,460.42023 272.6609,461.55306 271.9708,463.14811 271.78851,465.20538 L 284.60101,465.18585"
         style=""
         id="path2986" />
    </g>
  </g>
</svg>
