<?xml version="1.0" encoding="UTF-8" standalone="no"?>
<svg
   xmlns:dc="http://purl.org/dc/elements/1.1/"
   xmlns:cc="http://creativecommons.org/ns#"
   xmlns:rdf="http://www.w3.org/1999/02/22-rdf-syntax-ns#"
   xmlns:svg="http://www.w3.org/2000/svg"
   xmlns="http://www.w3.org/2000/svg"
   xmlns:sodipodi="http://sodipodi.sourceforge.net/DTD/sodipodi-0.dtd"
   xmlns:inkscape="http://www.inkscape.org/namespaces/inkscape"
   version="1.1"
   width="744.09448"
   height="1052.3622"
   id="svg2"
   inkscape:version="0.48.4 r9939"
   sodipodi:docname="g_path.svg">
  <sodipodi:namedview
     pagecolor="#ffffff"
     bordercolor="#666666"
     borderopacity="1"
     objecttolerance="10"
     gridtolerance="10"
     guidetolerance="10"
     inkscape:pageopacity="0"
     inkscape:pageshadow="2"
     inkscape:window-width="640"
     inkscape:window-height="480"
     id="namedview8"
     showgrid="false"
     inkscape:zoom="0.22425739"
     inkscape:cx="372.04724"
     inkscape:cy="526.18109"
     inkscape:window-x="65"
     inkscape:window-y="24"
     inkscape:window-maximized="0"
     inkscape:current-layer="svg2" />
  <defs
     id="defs4" />
  <metadata
     id="metadata7">
    <rdf:RDF>
      <cc:Work
         rdf:about="">
        <dc:format>image/svg+xml</dc:format>
        <dc:type
           rdf:resource="http://purl.org/dc/dcmitype/StillImage" />
        <dc:title />
      </cc:Work>
    </rdf:RDF>
  </metadata>
  <g
     id="layer1">
    <g
       style="font-size:40px;font-style:normal;font-weight:normal;line-height:125%;letter-spacing:0px;word-spacing:0px;fill:#000000;fill-opacity:1;stroke:none;font-family:Sans"
       id="text2985">
      <path
         d="M 283.87836,466.88507 C 283.87834,464.28092 283.33797,462.26269 282.25726,460.83038 281.18954,459.39811 279.68563,458.68197 277.74554,458.68195 275.81845,458.68197 274.31455,459.39811 273.23383,460.83038 272.16611,462.26269 271.63226,464.28092 271.63226,466.88507 271.63226,469.47623 272.16611,471.48794 273.23383,472.92023 274.31455,474.35252 275.81845,475.06867 277.74554,475.06866 279.68563,475.06867 281.18954,474.35252 282.25726,472.92023 283.33797,471.48794 283.87834,469.47623 283.87836,466.88507 M 287.47211,475.36163 C 287.47209,479.08559 286.64526,481.85251 284.99164,483.66241 283.33797,485.48532 280.80543,486.39678 277.39398,486.39679 276.13095,486.39678 274.93955,486.29913 273.81976,486.10382 272.69996,485.92152 271.61273,485.63506 270.55804,485.24445 L 270.55804,481.74835 C 271.61273,482.32126 272.65439,482.74444 273.68304,483.01788 274.71168,483.29132 275.75986,483.42803 276.82758,483.42804 279.18433,483.42803 280.94865,482.80955 282.12054,481.57257 283.2924,480.34861 283.87834,478.49314 283.87836,476.00616 L 283.87836,474.22882 C 283.13615,475.51789 282.18563,476.48143 281.02679,477.11945 279.86793,477.75747 278.48121,478.07648 276.86664,478.07648 274.18434,478.07648 272.02288,477.05434 270.38226,475.01007 268.74164,472.96581 267.92132,470.25747 267.92133,466.88507 267.92132,463.49967 268.74164,460.78483 270.38226,458.74054 272.02288,456.69629 274.18434,455.67416 276.86664,455.67413 278.48121,455.67416 279.86793,455.99317 281.02679,456.63116 282.18563,457.26921 283.13615,458.23275 283.87836,459.52179 L 283.87836,456.20148 287.47211,456.20148 287.47211,475.36163"
         style=""
         id="path2986" />
    </g>
  </g>
</svg>
