<?xml version="1.0" encoding="UTF-8" standalone="no"?>
<svg
   xmlns:dc="http://purl.org/dc/elements/1.1/"
   xmlns:cc="http://creativecommons.org/ns#"
   xmlns:rdf="http://www.w3.org/1999/02/22-rdf-syntax-ns#"
   xmlns:svg="http://www.w3.org/2000/svg"
   xmlns="http://www.w3.org/2000/svg"
   xmlns:sodipodi="http://sodipodi.sourceforge.net/DTD/sodipodi-0.dtd"
   xmlns:inkscape="http://www.inkscape.org/namespaces/inkscape"
   version="1.1"
   width="744.09448"
   height="1052.3622"
   id="svg2"
   inkscape:version="0.48.4 r9939"
   sodipodi:docname="n_path.svg">
  <sodipodi:namedview
     pagecolor="#ffffff"
     bordercolor="#666666"
     borderopacity="1"
     objecttolerance="10"
     gridtolerance="10"
     guidetolerance="10"
     inkscape:pageopacity="0"
     inkscape:pageshadow="2"
     inkscape:window-width="640"
     inkscape:window-height="480"
     id="namedview8"
     showgrid="false"
     inkscape:zoom="0.22425739"
     inkscape:cx="372.04724"
     inkscape:cy="526.18109"
     inkscape:window-x="65"
     inkscape:window-y="24"
     inkscape:window-maximized="0"
     inkscape:current-layer="svg2" />
  <defs
     id="defs4" />
  <metadata
     id="metadata7">
    <rdf:RDF>
      <cc:Work
         rdf:about="">
        <dc:format>image/svg+xml</dc:format>
        <dc:type
           rdf:resource="http://purl.org/dc/dcmitype/StillImage" />
        <dc:title />
      </cc:Work>
    </rdf:RDF>
  </metadata>
  <g
     id="layer1">
    <g
       style="font-size:40px;font-style:normal;font-weight:normal;line-height:125%;letter-spacing:0px;word-spacing:0px;fill:#000000;fill-opacity:1;stroke:none;font-family:Sans"
       id="text2985">
      <path
         d="M 287.66742,464.87335 287.66742,478.07648 284.07367,478.07648 284.07367,464.99054 C 284.07365,462.92024 283.67001,461.37076 282.86273,460.3421 282.05542,459.31347 280.84449,458.79915 279.22992,458.79913 277.2898,458.79915 275.75986,459.41764 274.64008,460.6546 273.52028,461.8916 272.96038,463.57779 272.96039,465.7132 L 272.96039,478.07648 269.34711,478.07648 269.34711,456.20148 272.96039,456.20148 272.96039,459.59991 C 273.81976,458.28483 274.82887,457.30176 275.98773,456.6507 277.1596,455.99968 278.50725,455.67416 280.0307,455.67413 282.5437,455.67416 284.44474,456.4554 285.73383,458.01788 287.02287,459.56738 287.6674,461.85253 287.66742,464.87335"
         style=""
         id="path2986" />
    </g>
  </g>
</svg>
