<?xml version="1.0" encoding="UTF-8" standalone="no"?>
<svg
   xmlns:dc="http://purl.org/dc/elements/1.1/"
   xmlns:cc="http://creativecommons.org/ns#"
   xmlns:rdf="http://www.w3.org/1999/02/22-rdf-syntax-ns#"
   xmlns:svg="http://www.w3.org/2000/svg"
   xmlns="http://www.w3.org/2000/svg"
   xmlns:sodipodi="http://sodipodi.sourceforge.net/DTD/sodipodi-0.dtd"
   xmlns:inkscape="http://www.inkscape.org/namespaces/inkscape"
   version="1.1"
   width="744.09448"
   height="1052.3622"
   id="svg2"
   inkscape:version="0.48.4 r9939"
   sodipodi:docname="o_path.svg">
  <sodipodi:namedview
     pagecolor="#ffffff"
     bordercolor="#666666"
     borderopacity="1"
     objecttolerance="10"
     gridtolerance="10"
     guidetolerance="10"
     inkscape:pageopacity="0"
     inkscape:pageshadow="2"
     inkscape:window-width="640"
     inkscape:window-height="480"
     id="namedview8"
     showgrid="false"
     inkscape:zoom="0.22425739"
     inkscape:cx="372.04724"
     inkscape:cy="526.18109"
     inkscape:window-x="65"
     inkscape:window-y="24"
     inkscape:window-maximized="0"
     inkscape:current-layer="svg2" />
  <defs
     id="defs4" />
  <metadata
     id="metadata7">
    <rdf:RDF>
      <cc:Work
         rdf:about="">
        <dc:format>image/svg+xml</dc:format>
        <dc:type
           rdf:resource="http://purl.org/dc/dcmitype/StillImage" />
        <dc:title />
      </cc:Work>
    </rdf:RDF>
  </metadata>
  <g
     id="layer1">
    <g
       style="font-size:40px;font-style:normal;font-weight:normal;line-height:125%;letter-spacing:0px;word-spacing:0px;fill:#000000;fill-opacity:1;stroke:none;font-family:Sans"
       id="text2985">
      <path
         d="M 277.96039,458.72101 C 276.03329,458.72103 274.50986,459.47624 273.39008,460.98663 272.27028,462.48404 271.71038,464.54133 271.71039,467.15851 271.71038,469.7757 272.26377,471.8395 273.37054,473.34991 274.49033,474.84731 276.02027,475.59601 277.96039,475.59601 279.87444,475.59601 281.39136,474.8408 282.51117,473.33038 283.63094,471.81997 284.19084,469.76268 284.19086,467.15851 284.19084,464.56738 283.63094,462.5166 282.51117,461.00616 281.39136,459.48275 279.87444,458.72103 277.96039,458.72101 M 277.96039,455.67413 C 281.08537,455.67416 283.5398,456.68978 285.32367,458.72101 287.1075,460.75228 287.99943,463.56477 287.99945,467.15851 287.99943,470.73924 287.1075,473.55174 285.32367,475.59601 283.5398,477.62726 281.08537,478.64288 277.96039,478.64288 274.82236,478.64288 272.36142,477.62726 270.57758,475.59601 268.80674,473.55174 267.92132,470.73924 267.92133,467.15851 267.92132,463.56477 268.80674,460.75228 270.57758,458.72101 272.36142,456.68978 274.82236,455.67416 277.96039,455.67413"
         style=""
         id="path2986" />
    </g>
  </g>
</svg>
